<?xml version="1.0" encoding="UTF-8" standalone="no"?>
<svg
   version="1.1"
   width="256"
   height="256"
   viewBox="0 0 256 256"
   xml:space="preserve"
   id="svg199"
   sodipodi:docname="compass-north-solidsvg.svg"
   inkscape:version="1.2.2 (732a01da63, 2022-12-09)"
   xmlns:inkscape="http://www.inkscape.org/namespaces/inkscape"
   xmlns:sodipodi="http://sodipodi.sourceforge.net/DTD/sodipodi-0.dtd"
   xmlns="http://www.w3.org/2000/svg"
   xmlns:svg="http://www.w3.org/2000/svg"><sodipodi:namedview
   id="namedview201"
   pagecolor="#ffffff"
   bordercolor="#000000"
   borderopacity="0.25"
   inkscape:showpageshadow="2"
   inkscape:pageopacity="0.0"
   inkscape:pagecheckerboard="0"
   inkscape:deskcolor="#d1d1d1"
   showgrid="false"
   inkscape:zoom="3.2382812"
   inkscape:cx="72.414958"
   inkscape:cy="128.1544"
   inkscape:window-width="1920"
   inkscape:window-height="1009"
   inkscape:window-x="1912"
   inkscape:window-y="-8"
   inkscape:window-maximized="1"
   inkscape:current-layer="g197" />

<defs
   id="defs191">
</defs>
<g
   style="stroke: none; stroke-width: 0; stroke-dasharray: none; stroke-linecap: butt; stroke-linejoin: miter; stroke-miterlimit: 10; fill: none; fill-rule: nonzero; opacity: 1;"
   transform="translate(1.4065934065934016 1.4065934065934016) scale(2.81 2.81)"
   id="g197">
	<path
   d="M 45 90 C 20.187 90 0 69.813 0 45 C 0 20.187 20.187 0 45 0 c 24.813 0 45 20.187 45 45 C 90 69.813 69.813 90 45 90 z M 45 4 C 22.393 4 4 22.393 4 45 s 18.393 41 41 41 s 41 -18.393 41 -41 S 67.607 4 45 4 z"
   style="stroke: none; stroke-width: 1; stroke-dasharray: none; stroke-linecap: butt; stroke-linejoin: miter; stroke-miterlimit: 10; fill: rgb(0,0,0); fill-rule: nonzero; opacity: 1;"
   transform=" matrix(1 0 0 1 0 0) "
   stroke-linecap="round"
   id="path193" />
	<path
   d="M 55.082 45 c 0 -0.073 -0.011 -0.146 -0.019 -0.219 c -0.009 -0.079 -0.016 -0.157 -0.034 -0.234 c -0.004 -0.019 -0.003 -0.038 -0.008 -0.056 l -8.088 -30.686 c -0.231 -0.878 -1.025 -1.49 -1.934 -1.49 s -1.703 0.612 -1.934 1.49 L 34.978 44.49 c -0.005 0.019 -0.004 0.039 -0.008 0.058 c -0.018 0.076 -0.024 0.153 -0.033 0.231 c -0.008 0.074 -0.019 0.147 -0.019 0.221 c 0 0.074 0.011 0.147 0.019 0.221 c 0.009 0.078 0.015 0.155 0.033 0.231 c 0.004 0.019 0.003 0.039 0.008 0.058 l 8.088 30.686 c 0.231 0.878 1.026 1.49 1.934 1.49 s 1.702 -0.612 1.934 -1.49 l 8.088 -30.686 c 0.005 -0.019 0.004 -0.038 0.008 -0.056 c 0.018 -0.077 0.025 -0.155 0.034 -0.234 C 55.071 45.146 55.082 45.073 55.082 45 z M 45 67.839 L 39.507 47 h 10.985 L 45 67.839 z"
   style="stroke:none;stroke-width:1;stroke-dasharray:none;stroke-linecap:butt;stroke-linejoin:miter;stroke-miterlimit:10;fill:#000000;fill-rule:nonzero;opacity:1;fill-opacity:1"
   transform=" matrix(1 0 0 1 0 0) "
   stroke-linecap="round"
   id="path195" />
<path
   style="opacity:1;fill:#000000;fill-opacity:1;stroke-width:0"
   d="m 120.27986,162.7062 c -4.07624,-15.47135 -7.45627,-28.32403 -7.51119,-28.56151 -0.0845,-0.36534 2.23763,-0.43178 15.0903,-0.43178 14.31478,0 15.182,0.0311 15.0488,0.54041 -6.48213,24.78368 -14.94776,56.58716 -15.06217,56.58522 -0.0849,-0.001 -3.48951,-12.66099 -7.56574,-28.13234 z"
   id="path1710"
   transform="matrix(0.35587189,0,0,0.35587189,-0.50056705,-0.50056705)" /><path
   style="opacity:1;fill:#ffffff;fill-opacity:1;stroke-width:0"
   d="m 125.83836,219.12151 c -1.15443,-0.51742 -2.17519,-1.48052 -2.75259,-2.5971 -0.62276,-1.20428 -23.3415,-87.50249 -23.3415,-88.66379 0,-1.1292 22.71367,-87.483621 23.31148,-88.627244 1.99206,-3.810801 7.32408,-3.990453 9.38905,-0.316346 0.73821,1.313479 23.50212,87.46176 23.50212,88.942 0,0.84947 -20.57393,79.69953 -22.59084,86.57994 -0.76671,2.6155 -1.5378,3.70237 -3.19626,4.50522 -1.46629,0.70981 -2.99359,0.77249 -4.32146,0.17732 z m 9.81792,-56.00388 c 4.19629,-15.92777 7.62961,-29.12921 7.62961,-29.33655 0,-0.29174 -3.49115,-0.37698 -15.44029,-0.37698 -8.49216,0 -15.44612,0.10422 -15.45325,0.23161 -0.0278,0.49665 15.3059,58.44149 15.46511,58.44149 0.0931,0 3.60254,-13.03181 7.79882,-28.95957 z"
   id="path1781"
   transform="matrix(0.35587189,0,0,0.35587189,-0.50056705,-0.50056705)" /><path
   style="opacity:1;fill:#000000;fill-opacity:1;stroke-width:0"
   d="M 123.05911,242.84475 C 108.06467,241.95906 95.256544,239.00095 82.336888,233.43974 52.866721,220.75441 29.62344,195.70908 19.160697,165.3655 c -4.366896,-12.66467 -6.233319,-23.89914 -6.233319,-37.5199 0,-13.46188 1.854442,-24.74002 6.104125,-37.123397 C 24.879867,73.680336 33.927275,59.27667 46.923012,46.318327 65.911996,27.383983 89.987795,16.107055 117.5006,13.260299 c 4.96893,-0.514136 16.7453,-0.430055 22.18563,0.158401 28.73769,3.108421 55.00318,16.599301 73.97753,37.997464 4.22835,4.768486 6.41608,7.619397 10.07125,13.124246 10.49756,15.809791 16.69063,33.238277 18.70922,52.65139 0.45524,4.37812 0.45524,16.92947 0,21.3076 -2.44316,23.49618 -11.04333,44.23845 -25.92757,62.53317 -5.5272,6.79368 -14.70605,15.32293 -22.22264,20.64992 -16.24884,11.51551 -35.7957,18.8095 -55.48582,20.70475 -3.5649,0.34314 -13.03026,0.61811 -15.74909,0.45751 z m 7.11531,-23.55548 c 1.6449,-0.74717 2.81083,-2.18171 3.37242,-4.14937 2.53423,-8.87916 22.71059,-86.34851 22.71583,-87.21989 0.0103,-1.72567 -22.86501,-88.311095 -23.63195,-89.449161 -2.2781,-3.380468 -7.05085,-3.443929 -9.50788,-0.126423 -0.72158,0.974293 -23.687376,87.769604 -23.687376,89.522424 0,0.81521 21.840156,84.62385 23.027396,88.3645 0.56602,1.78339 3.30048,3.62481 5.38274,3.62481 0.59445,0 1.64242,-0.2551 2.32882,-0.56689 z"
   id="path1783"
   transform="matrix(0.35587189,0,0,0.35587189,-0.50056705,-0.50056705)" /><path
   style="opacity:1;fill:#000000;fill-opacity:1;stroke-width:0"
   d="m 120.12545,253.96136 c -9.37539,-0.80842 -16.03545,-1.883 -23.544948,-3.7989 C 66.450531,242.47538 40.12616,223.71325 22.589094,197.42667 11.261437,180.44746 4.3267483,160.95991 2.1141917,139.88902 c -0.5250467,-5.00019 -0.5250467,-19.08666 0,-24.08685 C 4.3285536,94.714089 11.243246,75.311491 22.638914,58.209891 35.377458,39.093022 53.070153,23.704041 73.5634,13.916132 c 42.11101,-20.1129038 91.79996,-15.3451757 129.1676,12.39382 13.30357,9.875599 24.71679,22.380742 33.20139,36.377843 9.46276,15.610775 15.06224,32.111445 17.50033,51.570345 0.75613,6.03479 0.748,21.00323 -0.0148,27.32931 -1.86226,15.44343 -5.7348,28.61083 -12.35604,42.01296 -6.91261,13.99191 -15.71439,25.76061 -27.52264,36.80006 -19.56371,18.28998 -44.64928,29.8362 -71.64294,32.97535 -4.07749,0.47418 -18.54855,0.86338 -21.77081,0.58554 z m 18.37395,-11.26565 c 41.22711,-3.70694 77.76121,-29.86631 94.6684,-67.78504 12.82456,-28.7624 13.3671,-61.76659 1.49029,-90.659875 C 221.22625,51.574513 193.75927,26.89284 159.807,16.990014 149.59627,14.011863 139.50757,12.638732 127.8456,12.639881 117.34818,12.640931 108.96084,13.655087 99.308499,16.0905 75.397281,22.123614 53.766269,36.056204 37.99133,55.585042 23.989772,72.918497 15.509141,93.574259 13.096689,116.21942 c -0.554136,5.20156 -0.623662,17.04314 -0.129906,22.12557 1.447674,14.90153 5.158557,27.83529 11.783904,41.07117 14.643411,29.25408 40.592856,50.67494 72.184822,59.58742 13.009341,3.6701 27.496541,4.957 41.563891,3.69213 z"
   id="path1785"
   transform="matrix(0.35587189,0,0,0.35587189,-0.50056705,-0.50056705)" /><path
   style="opacity:1;fill:#000000;fill-opacity:1;stroke-width:0"
   d=""
   id="path1787"
   transform="matrix(0.35587189,0,0,0.35587189,-0.50056705,-0.50056705)" /><path
   style="opacity:1;fill:#000000;fill-opacity:1;stroke-width:0"
   d="M 118.73583,242.40199 C 102.7869,240.77752 89.061606,236.8601 75.966224,230.19486 49.33435,216.63985 28.985823,193.22543 19.223107,164.90229 17.644461,160.3224 15.859019,153.71539 15.00888,149.3076 12.945609,138.60998 12.552873,123.44771 14.052654,112.39087 16.778662,92.293923 25.285465,72.378707 37.812448,56.766987 52.073686,38.993957 70.234931,26.167131 91.054126,19.163739 c 24.093754,-8.104925 49.196644,-8.17637 72.996274,-0.207752 17.23634,5.77109 32.08234,14.970292 44.86738,27.801706 18.447,18.513907 29.4781,41.131412 33.07219,67.809257 0.65092,4.83155 0.7456,20.81146 0.15004,25.32207 -3.04321,23.04832 -10.51039,41.31012 -24.05435,58.82751 -6.50674,8.41563 -16.70517,17.91305 -26.00846,24.22073 -14.79441,10.03067 -32.08158,16.5551 -50.02654,18.88073 -5.49845,0.71259 -18.78491,1.0454 -23.31483,0.584 z m 11.8119,-23.18729 c 2.61899,-1.26783 2.21276,-0.0616 9.91889,-29.45354 5.4791,-20.89783 12.98456,-49.8102 14.68597,-56.57295 0.60673,-2.41163 1.10314,-4.81301 1.10314,-5.33641 0,-1.14028 -2.30216,-10.39449 -7.91413,-31.813199 -9.80098,-37.406535 -15.03107,-56.547383 -15.82099,-57.900914 -1.43533,-2.459455 -5.49599,-3.062953 -8.14273,-1.210177 -1.30129,0.910939 -1.3364,0.984415 -2.6486,5.544273 -5.3382,18.549964 -22.293816,83.430167 -22.293816,85.306687 0,1.05403 0.831946,4.37076 8.653506,34.49897 9.14423,35.22309 13.87848,53.00104 14.4706,54.33963 1.27684,2.88649 4.93447,4.07589 7.98816,2.59763 z"
   id="path1789"
   transform="matrix(0.35587189,0,0,0.35587189,-0.50056705,-0.50056705)" /></g>
</svg>
