<svg xmlns="http://www.w3.org/2000/svg" xmlns:xlink="http://www.w3.org/1999/xlink" version="1.1" width="256" height="256" viewBox="0 0 256 256" xml:space="preserve">

<defs>
</defs>
<g style="stroke: none; stroke-width: 0; stroke-dasharray: none; stroke-linecap: butt; stroke-linejoin: miter; stroke-miterlimit: 10; fill: none; fill-rule: nonzero; opacity: 1;" transform="translate(1.4065934065934016 1.4065934065934016) scale(2.81 2.81)" >
	<path d="M 30.79 42.437 c -0.568 0 -1.126 -0.242 -1.517 -0.695 L 0.485 8.301 c -0.519 -0.602 -0.631 -1.454 -0.288 -2.17 c 0.344 -0.716 1.063 -1.166 1.874 -1.133 L 88.07 8.019 c 0.904 0.032 1.675 0.667 1.879 1.549 c 0.203 0.882 -0.211 1.791 -1.011 2.216 l -57.21 30.419 C 31.431 42.361 31.109 42.437 30.79 42.437 z M 6.498 9.155 L 31.262 37.92 l 49.212 -26.166 L 6.498 9.155 z" style="stroke: none; stroke-width: 1; stroke-dasharray: none; stroke-linecap: butt; stroke-linejoin: miter; stroke-miterlimit: 10;  fill-rule: nonzero; opacity: 1;" transform=" matrix(1 0 0 1 0 0) " stroke-linecap="round" />
	<path d="M 42.415 85.005 c -0.097 0 -0.194 -0.007 -0.291 -0.021 c -0.786 -0.115 -1.43 -0.686 -1.639 -1.451 L 28.86 40.964 c -0.247 -0.902 0.165 -1.854 0.99 -2.293 L 87.061 8.252 c 0.798 -0.426 1.783 -0.26 2.401 0.402 c 0.617 0.662 0.713 1.656 0.233 2.424 L 44.111 84.064 C 43.742 84.654 43.098 85.005 42.415 85.005 z M 33.14 41.452 l 10 36.616 l 39.212 -62.782 L 33.14 41.452 z" style="stroke: none; stroke-width: 1; stroke-dasharray: none; stroke-linecap: butt; stroke-linejoin: miter; stroke-miterlimit: 10; fill-rule: nonzero; opacity: 1;" transform=" matrix(1 0 0 1 0 0) " stroke-linecap="round" />
</g>
</svg>