<svg xmlns="http://www.w3.org/2000/svg" xmlns:xlink="http://www.w3.org/1999/xlink" version="1.1"  width="256" height="256" viewBox="0 0 256 256" xml:space="preserve">

<defs
   id="defs3630">
</defs>
<g
   style="stroke: none; stroke-width: 0; stroke-dasharray: none; stroke-linecap: butt; stroke-linejoin: miter; stroke-miterlimit: 10; fill: none; fill-rule: nonzero; opacity: 1;"
   transform="translate(1.4065934065934016 1.4065934065934016) scale(2.81 2.81)"
   id="g3636">
	<path
   d="M 30.79 42.437 c -0.568 0 -1.126 -0.242 -1.517 -0.695 L 0.485 8.301 c -0.519 -0.602 -0.631 -1.454 -0.288 -2.17 c 0.344 -0.716 1.063 -1.166 1.874 -1.133 L 88.07 8.019 c 0.904 0.032 1.675 0.667 1.879 1.549 c 0.203 0.882 -0.211 1.791 -1.011 2.216 l -57.21 30.419 C 31.431 42.361 31.109 42.437 30.79 42.437 z M 6.498 9.155 L 31.262 37.92 l 49.212 -26.166 L 6.498 9.155 z"
   style="stroke: none; stroke-width: 1; stroke-dasharray: none; stroke-linecap: butt; stroke-linejoin: miter; stroke-miterlimit: 10; fill: rgb(0,0,0); fill-rule: nonzero; opacity: 1;"
   transform=" matrix(1 0 0 1 0 0) "
   stroke-linecap="round"
   id="path3632" />
	<path
   d="M 42.415 85.005 c -0.097 0 -0.194 -0.007 -0.291 -0.021 c -0.786 -0.115 -1.43 -0.686 -1.639 -1.451 L 28.86 40.964 c -0.247 -0.902 0.165 -1.854 0.99 -2.293 L 87.061 8.252 c 0.798 -0.426 1.783 -0.26 2.401 0.402 c 0.617 0.662 0.713 1.656 0.233 2.424 L 44.111 84.064 C 43.742 84.654 43.098 85.005 42.415 85.005 z M 33.14 41.452 l 10 36.616 l 39.212 -62.782 L 33.14 41.452 z"
   style="stroke: none; stroke-width: 1; stroke-dasharray: none; stroke-linecap: butt; stroke-linejoin: miter; stroke-miterlimit: 10; fill: rgb(0,0,0); fill-rule: nonzero; opacity: 1;"
   transform=" matrix(1 0 0 1 0 0) "
   stroke-linecap="round"
   id="path3634" />
</g>
<path
   style="fill:#000000;stroke-width:0.308806"
   d="M 54.70888,67.534072 C 35.679664,45.428901 20.136512,27.32765 20.168542,27.30907 c 0.05178,-0.03003 31.947793,1.082225 70.929166,2.473401 7.558022,0.269733 29.514112,1.042113 48.791312,1.716402 72.73542,2.544181 86.53068,3.047042 86.63141,3.157866 0.0419,0.04615 -29.46305,15.786687 -65.56665,34.978967 -36.10361,19.19228 -66.993686,35.613824 -68.644624,36.492324 l -3.0017,1.59726 z"
   id="path3642" /><path
   style="fill:#000000;stroke-width:0.308806"
   d="m 122.28163,218.90538 c -0.19758,-0.74343 -6.46556,-23.71319 -13.92884,-51.0439 -7.46328,-27.3307 -13.460839,-49.79597 -13.327904,-49.92281 0.404491,-0.38595 136.726104,-72.802664 136.840074,-72.692135 0.0975,0.09459 -108.44594,174.124375 -108.98624,174.739665 -0.13082,0.14899 -0.39952,-0.33738 -0.59709,-1.08082 z"
   id="path3644" /><path
   style="fill:#ffffff;stroke-width:0.308806"
   d="m 119.66224,239.95449 c -1.59011,-0.37396 -2.84854,-1.19141 -3.52896,-2.29234 -0.39294,-0.6358 -7.1407,-24.80636 -16.86827,-60.42234 C 90.347671,144.59037 82.956368,117.72297 82.839892,117.53449 82.723417,117.34601 65.04427,96.763047 43.5529,71.794576 22.061532,46.826106 3.9536265,25.779554 3.3131118,25.024463 1.3255962,22.681419 1.0744161,20.392389 2.5625151,18.184199 2.9445686,17.61727 3.7260297,16.837446 4.2990954,16.451257 c 1.3510809,-0.910493 1.7249345,-0.909624 29.3596146,0.06827 11.974562,0.423738 43.65854,1.536563 70.40884,2.472945 26.7503,0.936381 56.34934,1.976714 65.77563,2.311852 9.4263,0.335137 31.30257,1.107929 48.61393,1.717315 35.11053,1.235944 32.82101,1.009323 34.66855,3.431567 0.73046,0.957685 0.8671,1.432602 0.8671,3.013707 v 1.876873 L 190.2495,133.4041 c -35.0588,56.13317 -64.26746,102.83961 -64.90814,103.79209 -1.51175,2.24745 -3.57996,3.25197 -5.67912,2.7583 z m 58.00389,-106.9364 c 30.15595,-48.277921 54.92406,-88.028251 55.04024,-88.334062 0.1677,-0.44138 -0.19473,-0.334741 -1.75781,0.517214 -1.08299,0.590279 -32.18187,17.133866 -69.10862,36.763522 -36.92675,19.629656 -67.211729,35.762476 -67.299949,35.850696 -0.206378,0.20638 27.836359,102.97888 28.099329,102.9799 0.1088,3.1e-4 24.87087,-39.49934 55.02681,-87.77727 z M 158.49707,71.30993 c 37.74627,-20.064415 68.7616,-36.604897 68.92295,-36.756622 0.18174,-0.170895 0.14011,-0.275865 -0.10941,-0.275865 -0.56174,0 -45.79765,-1.59547 -70.28287,-2.478876 -4.7556,-0.171578 -22.47334,-0.793633 -39.37273,-1.382344 -16.8994,-0.58871 -36.910016,-1.290406 -44.468038,-1.559324 -44.233287,-1.573841 -53.587996,-1.890237 -53.681065,-1.815608 -0.269621,0.216201 69.627772,81.022939 69.973066,80.894219 0.213678,-0.0796 31.271817,-16.561161 69.018097,-36.62558 z"
   id="path3646" /><path
   style="fill:#ffffff;stroke-width:0.308806"
   d="m 119.04463,239.56488 c -2.07915,-0.73715 -2.56042,-1.35166 -3.52532,-4.50132 -1.47291,-4.80788 -6.65836,-23.48861 -17.889767,-64.44836 -5.774927,-21.06056 -11.433485,-41.64914 -12.574571,-45.75241 l -2.074703,-7.4605 -4.317627,-5.04614 C 76.287944,109.58078 58.346939,88.711739 38.793737,65.980514 19.240535,43.249289 2.9222667,24.141931 2.5309183,23.519717 1.1256612,21.285467 2.1748134,17.791815 4.6327147,16.520785 c 1.2412025,-0.641851 7.7856373,-0.608254 29.3498183,0.150672 9.588497,0.337455 23.478504,0.826136 30.866683,1.085957 7.388178,0.259821 19.269481,0.679342 26.402895,0.93227 7.133414,0.252928 36.732449,1.293549 65.775629,2.312491 91.68518,3.216656 89.88026,3.144145 92.98181,3.735471 2.47933,0.472695 3.82881,2.207473 3.82881,4.921971 0,1.591311 -0.30473,2.086705 -64.26555,104.473863 -35.34605,56.58123 -64.7019,103.34316 -65.23522,103.9154 -1.61552,1.73342 -3.31047,2.21888 -5.29296,1.516 z m 6.41459,-22.86042 c 4.53949,-7.12194 29.25275,-46.59713 60.75283,-97.04222 46.94875,-75.185008 47.14444,-75.503012 46.46394,-75.503012 -0.14553,0 -117.6956,62.485272 -132.0053,70.169132 -3.142101,1.68721 -5.841076,3.19157 -5.997727,3.34301 -0.172771,0.16702 0.230795,2.25282 1.025843,5.30199 2.650727,10.16608 20.150494,74.37183 25.378794,93.11349 0.72255,2.59011 1.4172,4.70929 1.54367,4.70929 0.12647,0 1.40355,-1.84125 2.83795,-4.09168 z m 5.08354,-130.346668 c 22.20969,-11.791208 48.58004,-25.806529 58.60079,-31.145151 10.02074,-5.338625 22.76616,-12.128806 28.32314,-15.08929 5.55698,-2.960485 10.06175,-5.521662 10.0106,-5.691505 -0.0585,-0.194071 -13.62221,-0.783726 -36.5065,-1.587041 -20.02742,-0.70303 -40.8603,-1.43613 -46.29528,-1.629112 -5.43498,-0.192981 -17.66369,-0.622392 -27.17491,-0.954245 -9.51122,-0.331852 -21.253555,-0.747149 -26.094086,-0.92288 -4.840531,-0.175732 -20.751749,-0.72945 -35.358263,-1.230484 -14.606514,-0.501035 -28.81544,-1.002315 -31.575392,-1.113956 -3.11784,-0.126117 -5.018094,-0.0915 -5.018094,0.09142 0,0.161923 1.764176,2.36745 3.920391,4.901171 12.012135,14.115192 48.473168,56.274225 60.554009,70.017181 3.439837,3.9131 5.533315,6.0607 5.805959,5.95608 0.234517,-0.09 18.597956,-9.810982 40.807636,-21.602191 z"
   id="path3648" /><path
   style="fill:#000000;stroke-width:0.308806"
   d="m 119.13461,239.63687 c -2.00141,-0.60331 -2.65071,-1.42465 -3.6153,-4.57331 -1.49282,-4.87285 -6.73277,-23.74778 -17.934673,-64.60276 C 83.384811,118.67193 83.088781,117.62347 82.429443,116.78526 82.112744,116.38265 64.166116,95.488593 42.548043,70.354037 20.929973,45.219483 2.9222667,24.144901 2.5309183,23.521634 1.1260859,21.284275 2.1745527,17.79195 4.6327147,16.520785 c 1.2412025,-0.641851 7.7856373,-0.608254 29.3498183,0.150672 9.588497,0.337455 23.478504,0.826136 30.866683,1.085957 7.388178,0.259821 19.269481,0.679177 26.402895,0.931903 7.133414,0.252726 30.826539,1.084859 52.651389,1.849183 103.29279,3.617402 103.59206,3.629249 106.28947,4.207739 1.04775,0.224703 1.72406,0.613592 2.39397,1.376586 1.11341,1.268106 1.35247,2.079954 1.19299,4.051406 -0.10925,1.350441 -5.67281,10.363025 -64.29668,104.156289 -35.2974,56.47286 -64.61319,103.14612 -65.14621,103.71836 -1.56634,1.68161 -3.21871,2.18598 -5.20243,1.58799 z m 7.13334,-24.21923 c 9.47889,-14.95806 84.94302,-135.71943 100.50152,-160.827428 3.33855,-5.387688 6.0701,-9.934352 6.0701,-10.103698 0,-0.169346 -0.24319,-0.216476 -0.54041,-0.104733 -0.29723,0.111743 -27.3602,14.468691 -60.13993,31.904326 -73.534208,39.113053 -77.132502,41.034783 -77.488895,41.384113 -0.363147,0.35595 0.604472,4.04169 12.805195,48.7761 12.65342,46.39426 14.87142,54.34982 15.15269,54.34982 0.12726,0 1.76514,-2.42032 3.63973,-5.3785 z M 112.96417,95.685731 c 69.17286,-36.686161 113.07287,-60.105982 114.153,-60.898456 0.55876,-0.409949 0.44594,-0.461037 -1.38962,-0.629281 -1.09877,-0.10071 -6.09715,-0.325635 -11.10753,-0.499832 C 194.09871,32.944689 90.303441,29.309983 77.973462,28.873069 47.693699,27.800101 20.80008,26.866851 20.149578,26.866489 c -0.382147,-2.12e-4 -0.694813,0.105894 -0.694813,0.235792 0,0.685143 69.40991,80.979749 70.002175,80.979749 0.0735,0 10.65176,-5.57834 23.50723,-12.396299 z"
   id="path3650" /><path
   style="fill:#ffffff;stroke-width:0.308806"
   d="m 118.27315,239.0591 c -2.02789,-1.08757 -0.8735,2.76072 -19.605053,-65.35584 C 85.327372,125.19023 83.657051,119.22005 82.981183,117.63395 82.732808,117.05108 78.524418,111.91894 73.629201,106.22919 56.315921,86.105832 7.2147813,28.836721 5.0557026,26.248492 2.4311818,23.102307 2.161499,22.622121 2.1621204,21.096296 2.1627637,19.516804 3.0071922,17.928912 4.3232811,17.032375 l 1.0808202,-0.736269 12.5066347,0.17329 c 10.514425,0.145686 37.137358,1.01203 82.142344,2.673017 4.84053,0.178648 26.65766,0.946231 48.48251,1.705738 37.47868,1.304264 47.88309,1.67379 78.28226,2.780299 15.09713,0.549525 22.13515,0.964472 23.68723,1.396549 1.74197,0.484941 3.02447,2.216646 3.02447,4.083816 0,1.723959 -0.5431,2.756027 -6.94497,13.197578 C 230.45911,68.60728 129.32644,230.2499 124.99729,236.64209 c -0.66873,0.98741 -1.65632,2.06385 -2.19464,2.39209 -1.23864,0.75526 -3.1481,0.76577 -4.5295,0.0249 z m 6.11343,-20.44047 c 3.95539,-5.93353 95.89308,-153.007235 104.79987,-167.649469 3.46938,-5.703449 4.01759,-6.809933 3.37401,-6.809933 -0.15351,0 -2.34217,1.095587 -4.86369,2.434638 -2.52152,1.339052 -16.88278,8.963822 -31.9139,16.943935 -33.50922,17.790249 -93.08228,49.499659 -97.814233,52.064329 -2.667498,1.44576 -3.473525,2.02811 -3.471737,2.50831 0.0045,1.21507 2.046836,8.88997 14.68829,55.1977 12.99656,47.60853 12.98666,47.57377 13.50678,47.41437 0.20192,-0.0619 0.9645,-1.00863 1.69461,-2.10388 z M 98.773684,103.40689 C 142.73806,80.169297 221.83345,38.029732 226.5843,35.313368 c 1.13408,-0.648427 1.24447,-0.922788 0.46516,-1.156085 -0.76303,-0.228422 -11.01394,-0.628477 -56.43426,-2.202421 -21.90977,-0.759235 -49.70229,-1.728371 -61.76116,-2.153634 -88.867926,-3.133979 -89.399275,-3.149581 -89.399275,-2.62512 0,0.467126 6.699283,8.391499 27.149763,32.114604 28.839209,33.454259 42.324962,48.791318 42.901814,48.791318 0.232216,0 4.402521,-2.10382 9.267342,-4.67514 z"
   id="path3652" /></svg>
