<svg xmlns="http://www.w3.org/2000/svg" xmlns:xlink="http://www.w3.org/1999/xlink" version="1.1" width="256" height="256" viewBox="0 0 256 256" xml:space="preserve">

<defs>
</defs>
<g style="stroke: none; stroke-width: 0; stroke-dasharray: none; stroke-linecap: butt; stroke-linejoin: miter; stroke-miterlimit: 10; fill: none; fill-rule: nonzero; opacity: 1;" transform="translate(1.4065934065934016 1.4065934065934016) scale(2.81 2.81)" >
	<path d="M 71.932 0 H 18.068 C 8.105 0 0 8.105 0 18.068 v 53.864 C 0 81.895 8.105 90 18.068 90 h 53.864 C 81.895 90 90 81.895 90 71.932 V 18.068 C 90 8.105 81.895 0 71.932 0 z M 65.454 50 H 50 v 15.454 c 0 2.762 -2.238 5 -5 5 c -2.761 0 -5 -2.238 -5 -5 V 50 H 24.545 c -2.761 0 -5 -2.238 -5 -5 c 0 -2.761 2.239 -5 5 -5 H 40 V 24.545 c 0 -2.761 2.239 -5 5 -5 c 2.762 0 5 2.239 5 5 V 40 h 15.454 c 2.762 0 5 2.239 5 5 C 70.454 47.762 68.216 50 65.454 50 z" style="stroke: none; stroke-width: 1; stroke-dasharray: none; stroke-linecap: butt; stroke-linejoin: miter; stroke-miterlimit: 10; fill: rgb(0,0,0); fill-rule: nonzero; opacity: 1;" transform=" matrix(1 0 0 1 0 0) " stroke-linecap="round" />
</g>
</svg>