<svg xmlns="http://www.w3.org/2000/svg" xmlns:xlink="http://www.w3.org/1999/xlink" version="1.1" width="256" height="256" viewBox="0 0 256 256" xml:space="preserve">

<defs>
</defs>
<g style="stroke: none; stroke-width: 0; stroke-dasharray: none; stroke-linecap: butt; stroke-linejoin: miter; stroke-miterlimit: 10; fill: none; fill-rule: nonzero; opacity: 1;" transform="translate(1.4065934065934016 1.4065934065934016) scale(2.81 2.81)" >
	<path d="M 45 90 C 20.187 90 0 69.813 0 45 C 0 20.187 20.187 0 45 0 c 24.813 0 45 20.187 45 45 C 90 69.813 69.813 90 45 90 z M 45 4 C 22.393 4 4 22.393 4 45 s 18.393 41 41 41 s 41 -18.393 41 -41 S 67.607 4 45 4 z" style="stroke: none; stroke-width: 1; stroke-dasharray: none; stroke-linecap: butt; stroke-linejoin: miter; stroke-miterlimit: 10; fill: rgb(0,0,0); fill-rule: nonzero; opacity: 1;" transform=" matrix(1 0 0 1 0 0) " stroke-linecap="round" />
	<path d="M 55.082 45 c 0 -0.073 -0.011 -0.146 -0.019 -0.219 c -0.009 -0.079 -0.016 -0.157 -0.034 -0.234 c -0.004 -0.019 -0.003 -0.038 -0.008 -0.056 l -8.088 -30.686 c -0.231 -0.878 -1.025 -1.49 -1.934 -1.49 s -1.703 0.612 -1.934 1.49 L 34.978 44.49 c -0.005 0.019 -0.004 0.039 -0.008 0.058 c -0.018 0.076 -0.024 0.153 -0.033 0.231 c -0.008 0.074 -0.019 0.147 -0.019 0.221 c 0 0.074 0.011 0.147 0.019 0.221 c 0.009 0.078 0.015 0.155 0.033 0.231 c 0.004 0.019 0.003 0.039 0.008 0.058 l 8.088 30.686 c 0.231 0.878 1.026 1.49 1.934 1.49 s 1.702 -0.612 1.934 -1.49 l 8.088 -30.686 c 0.005 -0.019 0.004 -0.038 0.008 -0.056 c 0.018 -0.077 0.025 -0.155 0.034 -0.234 C 55.071 45.146 55.082 45.073 55.082 45 z M 45 67.839 L 39.507 47 h 10.985 L 45 67.839 z" style="stroke: none; stroke-width: 1; stroke-dasharray: none; stroke-linecap: butt; stroke-linejoin: miter; stroke-miterlimit: 10; fill: rgb(0,0,0); fill-rule: nonzero; opacity: 1;" transform=" matrix(1 0 0 1 0 0) " stroke-linecap="round" />
</g>
</svg>