<svg xmlns="http://www.w3.org/2000/svg" xmlns:xlink="http://www.w3.org/1999/xlink" version="1.1" width="256" height="256" viewBox="0 0 256 256" xml:space="preserve">

<defs>
</defs>
<g style="stroke: none; stroke-width: 0; stroke-dasharray: none; stroke-linecap: butt; stroke-linejoin: miter; stroke-miterlimit: 10; fill: none; fill-rule: nonzero; opacity: 1;" transform="translate(1.4065934065934016 1.4065934065934016) scale(2.81 2.81)" >
	<path d="M 61.692 89.121 H 28.307 C 12.699 89.121 0 76.423 0 60.814 V 29.186 C 0 13.577 12.699 0.878 28.307 0.878 h 33.385 C 77.301 0.878 90 13.577 90 29.186 v 31.629 C 90 76.423 77.301 89.121 61.692 89.121 z M 28.307 8.878 C 17.11 8.878 8 17.988 8 29.186 v 31.629 c 0 11.197 9.11 20.307 20.307 20.307 h 33.385 C 72.89 81.121 82 72.012 82 60.814 V 29.186 c 0 -11.197 -9.11 -20.307 -20.308 -20.307 H 28.307 z" style="stroke: none; stroke-width: 1; stroke-dasharray: none; stroke-linecap: butt; stroke-linejoin: miter; stroke-miterlimit: 10; fill: rgb(0,0,0); fill-rule: nonzero; opacity: 1;" transform=" matrix(1 0 0 1 0 0) " stroke-linecap="round" />
	<rect x="4" y="25.19" rx="0" ry="0" width="82" height="8" style="stroke: none; stroke-width: 1; stroke-dasharray: none; stroke-linecap: butt; stroke-linejoin: miter; stroke-miterlimit: 10; fill: rgb(0,0,0); fill-rule: nonzero; opacity: 1;" transform=" matrix(1 0 0 1 0 0) "/>
	<rect x="26.87" y="3.5" rx="0" ry="0" width="8" height="27.42" style="stroke: none; stroke-width: 1; stroke-dasharray: none; stroke-linecap: butt; stroke-linejoin: miter; stroke-miterlimit: 10; fill: rgb(0,0,0); fill-rule: nonzero; opacity: 1;" transform=" matrix(0.8738 -0.4862 0.4862 0.8738 -4.4709 17.1799) "/>
	<rect x="54.74" y="3.12" rx="0" ry="0" width="8" height="27.82" style="stroke: none; stroke-width: 1; stroke-dasharray: none; stroke-linecap: butt; stroke-linejoin: miter; stroke-miterlimit: 10; fill: rgb(0,0,0); fill-rule: nonzero; opacity: 1;" transform=" matrix(0.8738 -0.4862 0.4862 0.8738 -0.8707 30.7082) "/>
	<path d="M 33.73 64.409 V 45.798 c 0 -2.683 2.861 -4.398 5.227 -3.133 l 17.41 9.306 c 2.504 1.338 2.504 4.928 0 6.266 l -17.41 9.306 C 36.59 68.807 33.73 67.092 33.73 64.409 z" style="stroke: none; stroke-width: 1; stroke-dasharray: none; stroke-linecap: butt; stroke-linejoin: miter; stroke-miterlimit: 10; fill: rgb(0,0,0); fill-rule: nonzero; opacity: 1;" transform=" matrix(1 0 0 1 0 0) " stroke-linecap="round" />
</g>
</svg>